<?xml version="1.0" standalone="no"?>
<!DOCTYPE svg PUBLIC "-//W3C//DTD SVG 20010904//EN"
 "http://www.w3.org/TR/2001/REC-SVG-20010904/DTD/svg10.dtd">
<svg version="1.0" xmlns="http://www.w3.org/2000/svg"
 width="1280.000000pt" height="720.000000pt" viewBox="0 0 1280.000000 720.000000"
 preserveAspectRatio="xMidYMid meet">

<g transform="translate(0.000000,720.000000) scale(0.100000,-0.100000)"
fill="#000000" stroke="none">
<path d="M0 3600 l0 -3600 6400 0 6400 0 0 3600 0 3600 -6400 0 -6400 0 0
-3600z m6690 2810 l0 -330 -290 0 -290 0 0 330 0 330 290 0 290 0 0 -330z
m930 -1340 l0 -170 -1220 0 -1220 0 0 170 0 170 1220 0 1220 0 0 -170z m-680
-715 l0 -335 -540 0 -540 0 0 335 0 335 540 0 540 0 0 -335z m710 -597 c8 0
53 3 100 7 111 10 200 -11 248 -58 53 -51 82 -116 82 -186 0 -69 -10 -101 -40
-129 l-21 -20 28 -26 c15 -14 31 -26 35 -26 5 0 8 -4 8 -10 0 -6 -105 -10
-295 -10 -178 0 -295 4 -295 9 0 6 8 16 18 23 16 11 18 26 16 125 -1 62 -5
116 -8 121 -3 5 -17 7 -30 5 -31 -6 -76 38 -76 74 0 20 4 23 20 18 21 -7 28
10 8 18 -7 3 2 6 20 6 21 1 39 9 53 25 12 14 27 22 34 20 6 -3 18 2 25 11 9
11 21 14 34 10 12 -4 28 -7 36 -7z m-1488 -19 c63 -16 67 -37 61 -321 l-3
-118 -79 0 -79 0 -7 178 c-5 143 -10 184 -25 214 -14 28 -16 39 -7 46 27 22
58 23 139 1z m494 -15 c21 -11 45 -31 54 -46 13 -24 13 -29 -1 -45 -11 -12
-16 -42 -18 -98 -1 -44 -4 -94 -7 -112 -4 -26 0 -35 19 -48 24 -15 26 -14 89
52 147 153 207 226 210 251 3 23 8 27 40 30 34 3 43 -2 88 -47 68 -68 65 -95
-13 -136 -21 -11 -55 -35 -75 -53 -20 -18 -55 -42 -77 -54 -22 -11 -51 -32
-65 -47 -69 -71 -69 -71 -231 -71 -138 0 -148 1 -154 19 -10 34 -3 405 9 420
14 17 81 10 132 -15z m-1479 4 c42 -1 59 -21 78 -96 25 -98 2 -132 -71 -107
-61 21 -114 26 -182 19 -108 -11 -171 -71 -223 -211 l-11 -33 -76 0 -75 0 6
53 c9 75 53 220 71 233 9 6 16 16 16 22 0 6 17 24 38 39 20 15 39 31 40 36 2
4 9 7 16 7 7 0 28 8 47 17 53 27 97 32 199 27 52 -3 109 -6 127 -6z m467 -3
c39 -17 41 -21 26 -59 -13 -36 0 -65 68 -150 31 -39 70 -90 86 -114 17 -24 40
-52 53 -62 41 -32 29 -40 -64 -40 l-88 0 -32 37 -32 38 -1 -37 0 -38 -70 0
-70 0 -1 73 c-7 306 -6 352 5 359 19 13 82 9 120 -7z m-815 -652 c9 -18 22
-33 29 -33 6 0 12 -4 12 -9 0 -13 87 -41 125 -41 54 0 134 35 179 79 39 38 46
41 97 41 81 0 98 -29 61 -100 -49 -96 -188 -182 -304 -188 -107 -6 -150 4
-226 55 -74 50 -125 115 -147 189 l-13 45 85 -3 c86 -3 86 -3 102 -35z m845
-83 c-3 -131 -11 -157 -52 -165 -15 -4 -35 -10 -44 -16 -26 -13 -45 -11 -52 7
-3 9 -6 78 -6 155 l0 139 79 0 78 0 -3 -120z m553 43 c15 -110 9 -139 -38
-168 -20 -14 -59 -30 -84 -36 -44 -11 -48 -10 -70 12 -13 13 -40 55 -60 93
-20 37 -54 93 -76 122 l-40 54 179 0 178 0 11 -77z m464 55 c0 -13 1 -68 2
-123 3 -112 -8 -135 -62 -135 -17 0 -33 -4 -36 -10 -12 -19 -35 -10 -50 20
-10 20 -17 71 -21 150 l-6 120 86 0 c82 0 86 -1 87 -22z m385 0 c16 -12 31
-25 34 -28 5 -5 22 -15 70 -40 111 -58 146 -94 120 -125 -16 -19 -114 -65
-138 -65 -28 0 -71 34 -209 165 -72 69 -103 95 -113 95 -6 0 -10 5 -10 10 0 6
43 10 109 10 96 0 111 -2 137 -22z m636 -35 c0 -32 0 -69 -1 -82 -3 -34 13
-40 77 -26 98 20 185 75 208 131 14 34 15 34 79 34 73 0 76 -4 48 -67 -20 -43
-98 -150 -128 -175 -44 -37 -167 -64 -340 -75 -56 -3 -79 0 -115 16 -79 36
-93 52 -93 105 1 46 17 81 33 71 5 -3 12 -1 15 5 5 8 11 8 20 0 19 -16 28 18
19 75 l-6 45 91 0 91 0 2 -57z m-772 -918 l0 -315 -468 0 -468 0 -72 103 -72
102 0 213 0 212 540 0 540 0 0 -315z"/>
<path d="M7720 3620 c-11 -7 -15 -35 -18 -113 -5 -128 3 -150 50 -137 69 20
156 72 174 105 16 31 16 35 1 68 -21 43 -30 50 -91 71 -55 18 -94 20 -116 6z"/>
</g>
</svg>
